<svg width="108" height="43" viewBox="0 0 108 43" fill="none" xmlns="http://www.w3.org/2000/svg">
<path id="LOGO" d="M2.45 34H21.07V28.505H9.38V9.5H2.45V34ZM35.7913 34.49C43.6313 34.49 49.4063 29.1 49.4063 21.75C49.4063 14.4 43.6313 9.01 35.7913 9.01C27.9513 9.01 22.1763 14.4 22.1763 21.75C22.1763 29.1 27.9513 34.49 35.7913 34.49ZM35.7913 28.75C32.0813 28.75 29.1763 25.985 29.1763 21.75C29.1763 17.515 32.0813 14.75 35.7913 14.75C39.5013 14.75 42.4063 17.515 42.4063 21.75C42.4063 25.985 39.5013 28.75 35.7913 28.75ZM69.4509 27.945C68.2259 28.505 67.0009 28.75 65.7059 28.75C61.5759 28.75 58.7759 25.88 58.7759 21.75C58.7759 17.515 61.5759 14.75 65.7759 14.75C68.1209 14.75 70.0459 15.625 71.7259 17.48L76.1359 13.49C73.7209 10.585 70.0109 9.01 65.4259 9.01C57.4809 9.01 51.7759 14.295 51.7759 21.75C51.7759 29.205 57.4809 34.49 65.2859 34.49C68.8559 34.49 72.7409 33.405 75.5759 31.375V21.225H69.4509V27.945ZM92.3245 34.49C100.165 34.49 105.94 29.1 105.94 21.75C105.94 14.4 100.165 9.01 92.3245 9.01C84.4845 9.01 78.7095 14.4 78.7095 21.75C78.7095 29.1 84.4845 34.49 92.3245 34.49ZM92.3245 28.75C88.6145 28.75 85.7095 25.985 85.7095 21.75C85.7095 17.515 88.6145 14.75 92.3245 14.75C96.0345 14.75 98.9395 17.515 98.9395 21.75C98.9395 25.985 96.0345 28.75 92.3245 28.75Z" fill="#484848"/>
</svg>
